<?xml version="1.0" standalone="no"?>
<!DOCTYPE svg PUBLIC "-//W3C//DTD SVG 20010904//EN"
 "http://www.w3.org/TR/2001/REC-SVG-20010904/DTD/svg10.dtd">
<svg version="1.0" xmlns="http://www.w3.org/2000/svg"
 width="64.000000pt" height="64.000000pt" viewBox="0 0 64.000000 64.000000"
 preserveAspectRatio="xMidYMid meet">
<metadata>
Created by potrace 1.10, written by Peter Selinger 2001-2011
</metadata>
<g transform="translate(0.000000,64.000000) scale(0.100000,-0.100000)"
fill="#000000" stroke="none">
<path d="M268 630 c-30 -9 -77 -41 -78 -52 0 -14 19 -8 56 17 41 28 91 32 132
11 58 -30 95 -94 85 -147 -4 -21 -10 -24 -46 -24 -52 0 -67 9 -67 40 0 28 17
42 33 26 19 -19 27 -12 27 22 0 39 -15 57 -47 57 -39 0 -78 -26 -132 -86 -55
-63 -72 -59 -52 12 11 41 7 54 -11 36 -7 -7 -12 -36 -12 -65 0 -202 287 -229
329 -30 24 115 -99 219 -217 183z m119 -87 c2 -6 -6 -13 -19 -15 -27 -4 -51
-45 -38 -67 12 -23 -56 -46 -87 -29 -13 6 -23 14 -23 18 0 4 25 31 55 59 43
41 61 52 82 49 14 -2 28 -8 30 -15z m-142 -135 c20 -9 31 -8 50 2 21 11 29 11
49 0 21 -10 31 -11 56 0 49 20 61 -2 21 -39 -57 -53 -145 -54 -201 -1 -44 41
-29 63 25 38z"/>
<path d="M10 305 c-25 -31 36 -122 115 -172 44 -27 45 -29 45 -81 l0 -53 68 3
67 3 3 80 c4 104 -2 122 -42 142 -19 9 -40 30 -50 49 -17 36 -45 45 -65 20 -9
-11 -9 -20 -2 -35 26 -47 1 -42 -58 14 -53 49 -62 53 -81 30z m65 -44 c27 -29
49 -42 87 -52 69 -16 100 -47 91 -90 -4 -23 -3 -30 5 -25 14 9 16 61 2 85 -5
10 -23 24 -40 31 -17 7 -37 25 -45 41 -18 35 -19 39 -1 39 7 0 19 -13 26 -30
7 -17 27 -37 49 -47 l36 -18 3 -88 3 -87 -51 0 -50 0 0 34 c0 19 5 36 12 38 6
2 -19 25 -55 51 -81 58 -155 157 -117 157 6 0 26 -18 45 -39z"/>
<path d="M559 284 c-55 -57 -94 -71 -69 -24 9 16 9 25 -1 36 -20 25 -48 16
-66 -20 -9 -20 -29 -40 -45 -47 -40 -16 -48 -37 -48 -123 0 -105 0 -106 76
-106 l64 0 0 51 c0 40 5 55 23 70 31 26 3 24 -34 -2 -26 -18 -43 -49 -19 -34
6 4 10 -8 10 -29 l0 -36 -50 0 -51 0 3 87 3 88 36 18 c22 10 42 30 49 47 7 17
19 30 26 30 18 0 17 -4 -1 -39 -8 -16 -28 -34 -45 -41 -17 -7 -35 -21 -40 -31
-14 -24 -12 -76 2 -85 8 -5 9 2 5 25 -9 43 22 74 91 90 38 10 60 23 87 52 35
39 55 49 55 28 0 -16 -59 -98 -81 -112 -22 -14 -25 -27 -5 -27 18 0 73 62 93
106 13 27 14 36 3 49 -19 23 -33 19 -71 -21z"/>
</g>
</svg>
